<svg width="380" height="380" viewBox="0 0 380 380" fill="none" xmlns="http://www.w3.org/2000/svg">
    <g clip-path="url(#clip0_1254_39885)">
        <path d="M97.5053 343.935C7.26428 285.76 -19.1523 164.866 35.3122 69.001C36.1019 67.5999 37.1575 66.3743 38.4171 65.396C39.6767 64.4178 41.1148 63.7066 42.647 63.3042C44.1793 62.9019 45.7748 62.8165 47.3397 63.0531C48.9047 63.2897 50.4077 63.8435 51.7603 64.682L370.97 270.469C372.284 271.335 373.408 272.47 374.271 273.802C375.135 275.135 375.718 276.636 375.985 278.21C376.252 279.785 376.197 281.399 375.823 282.951C375.449 284.502 374.765 285.958 373.813 287.226C332.41 344.026 268.203 375.093 203.71 375.089C166.136 375.198 129.304 364.394 97.5053 343.935Z"
              fill="#FBE3C7"/>
        <mask id="mask0_1254_39885" style="mask-type:luminance" maskUnits="userSpaceOnUse" x="0" y="0" width="380"
              height="380">
            <path d="M380 0H0V380H380V0Z" fill="white"/>
        </mask>
        <g mask="url(#mask0_1254_39885)">
            <path d="M244.347 221.722C237.493 226.866 217.552 241.811 206.499 249.816C208.282 262.036 217.709 271.829 217.709 271.829C217.709 271.829 229.36 258.107 235.578 250.653C241.795 243.198 246.626 237.38 248.115 232.96C248.184 232.73 248.168 232.483 248.07 232.264C247.972 232.046 247.798 231.872 247.583 231.776L248.363 231.092C248.589 230.898 248.772 230.658 248.901 230.387C249.031 230.117 249.105 229.822 249.117 229.521C249.13 229.22 249.081 228.92 248.974 228.64C248.867 228.359 248.704 228.104 248.496 227.891C248.226 227.617 247.891 227.419 247.525 227.315C247.158 227.211 246.771 227.204 246.401 227.296L247.786 226.196C248.337 225.766 248.705 225.137 248.817 224.437C248.929 223.738 248.775 223.022 248.387 222.435C248.172 222.111 247.895 221.836 247.573 221.624C247.252 221.412 246.891 221.269 246.514 221.202C246.137 221.136 245.751 221.148 245.378 221.237C245.005 221.327 244.654 221.492 244.346 221.723"
                  fill="#FF9494"/>
            <path d="M212.788 245.868L227.413 224.005C227.829 223.395 228.457 222.97 229.169 222.817C229.881 222.665 230.623 222.796 231.244 223.185C231.562 223.379 231.838 223.639 232.054 223.946C232.27 224.254 232.423 224.604 232.501 224.974C232.58 225.345 232.584 225.727 232.513 226.099C232.441 226.471 232.296 226.824 232.086 227.136L223.306 240.185C223.306 240.185 217.362 250.874 212.787 245.868"
                  fill="#FF9494"/>
            <path d="M230.932 244.416C230.91 245.453 230.736 246.48 230.413 247.464L229.227 247.069C230.662 242.753 228.344 237.429 226.546 235.086L227.538 234.325C228.685 235.813 231.046 240.011 230.932 244.416Z"
                  fill="#ED6F70"/>
            <path d="M235.178 236.59L246.337 227.256L246.737 227.735L235.579 237.069L235.178 236.59Z" fill="#ED6F70"/>
            <path d="M237.907 241.264L247.502 231.827L247.94 232.272L238.345 241.709L237.907 241.264Z" fill="#ED6F70"/>
            <path d="M154.486 218.356C163.724 224.293 172.626 237.306 184.928 263.663L207.199 248.125L224.594 267.831L195.706 300.764C193.51 303.238 190.446 304.721 187.182 304.89C183.919 305.06 180.723 303.9 178.294 301.666L169.613 293.626C169.613 293.626 157.605 224.902 154.485 218.357"
                  fill="#FBA91A"/>
            <path d="M145.708 186.26C147.554 190.362 155.414 200.4 161.908 205.249L161.634 206.755C161.634 206.755 146.87 196.509 144.272 187.562C141.674 178.614 145.708 186.264 145.708 186.264"
                  fill="#E62D44"/>
            <path d="M156.53 183.851C156.53 191.844 152.125 198.324 146.691 198.324C141.258 198.324 136.853 191.844 136.853 183.851C136.853 175.859 141.258 169.38 146.691 169.38C152.125 169.38 156.53 175.859 156.53 183.851Z"
                  fill="#E62D44"/>
            <path d="M161.122 229.761L113.008 242.972L113.563 202.747L113.579 201.811L113.777 186.912L113.807 186.395C113.831 185.93 113.885 185.468 113.971 185.011C114.555 181.88 116.264 179.087 118.762 177.18C121.26 175.273 124.366 174.391 127.468 174.708C130.571 175.025 133.444 176.517 135.524 178.891C137.604 181.266 138.738 184.35 138.704 187.536L138.605 190.616L138.032 208.572L137.826 214.626L139.318 215.592L161.122 229.761Z"
                  fill="#FFBDBD"/>
            <path d="M139.32 215.593L139.267 215.95C126.906 215.152 118.717 207.638 113.579 201.812L113.777 186.913L113.807 186.396C113.831 185.931 113.885 185.468 113.971 185.011L116.264 182.623L138.611 190.617L138.037 208.573L137.832 214.627L139.32 215.593Z"
                  fill="#FFA8A8"/>
            <path d="M138.768 214.257C134.299 224.819 125.19 222.646 116.503 219.363C116.838 223.493 118.565 288.133 126.299 328.579H173.308C171.424 272.435 158.765 236.546 138.765 214.256"
                  fill="white"/>
            <path d="M121.885 221.12L147.968 254.273L137.795 216.074L141.311 217.849L150.913 255.98L147.205 257.217L121.121 226.464L121.885 221.12Z"
                  fill="#454975"/>
            <path d="M144.958 282.322C144.639 277.66 135.155 273.599 134.825 268.753C132.701 237.423 125.2 216.942 113.463 210.256C99.7245 219.485 97.3618 230.861 96.7263 238.106C96.3357 242.661 88.6292 292.389 82.9767 328.579H153.031C152.665 317.898 146.288 300.731 144.958 282.322Z"
                  fill="#FFCF1B"/>
            <path d="M137.928 212.065L137.795 216.074C146.995 226.076 154.178 243.742 158.213 266.441C162.8 292.15 159.982 328.097 159.982 328.097C159.982 328.097 175.378 327.912 185.206 327.912C183.579 307.417 178.818 282.139 175.513 267.038C172.348 252.57 165.868 210.52 137.929 212.065"
                  fill="#FFCF1B"/>
            <path d="M107.005 182.092C109.903 190.443 112.97 192.283 116.029 191.981C121.308 207.873 131.559 215.602 142.288 214.99C150.989 214.513 153.098 202.435 153.079 191.096C153.06 188.475 152.947 185.872 152.776 183.479C152.342 178.264 151.582 173.082 150.504 167.965C161.289 149.146 142.65 140.595 126.624 152.585C126.071 151.945 125.402 151.42 124.655 151.039C121.448 149.354 117.078 151.085 112.224 159.883C104.444 163.053 103.938 173.255 107.005 182.093"
                  fill="#3A1593"/>
            <path d="M153.08 191.096L153.05 191.111C144.913 196.305 136.834 191.985 134.989 192.199C133.17 192.389 128.657 194.062 127.264 193.606C125.871 193.15 124.037 191.513 121.815 186.167C120.581 189.248 113.686 191.544 111.414 182.73C109.13 173.945 116.498 173.17 121.247 182.213C120.783 179.733 120.756 176.174 120.646 171.511C138.555 151.273 147.836 162.56 150.512 167.968C150.611 168.446 150.702 168.918 150.801 169.382C150.999 170.424 151.189 171.435 151.356 172.425C152.11 176.752 152.558 180.544 152.78 183.473C152.955 185.869 153.061 188.47 153.084 191.09"
                  fill="#FFBDBD"/>
            <path d="M151.352 172.424C150.11 171.531 148.609 171.094 147.093 171.184C145.335 171.275 145.023 169.259 146.356 168.781C147.091 168.516 147.877 168.433 148.649 168.537C149.422 168.642 150.159 168.931 150.801 169.382C150.999 170.424 151.189 171.435 151.356 172.425"
                  fill="#FFA8A8"/>
            <path d="M119.964 183.403C119.458 182.764 119.005 182.115 118.482 181.528C117.985 180.93 117.433 180.382 116.832 179.893C116.253 179.398 115.596 179.007 114.889 178.736C114.545 178.602 114.176 178.545 113.808 178.569C113.62 178.577 113.435 178.627 113.268 178.717C113.1 178.806 112.954 178.932 112.84 179.085C112.908 178.878 113.026 178.692 113.184 178.544C113.342 178.397 113.533 178.292 113.741 178.241C114.162 178.122 114.606 178.116 115.03 178.223C115.851 178.423 116.616 178.813 117.265 179.364C117.903 179.887 118.457 180.508 118.908 181.206C119.361 181.882 119.717 182.621 119.965 183.4"
                  fill="#F18B8B"/>
            <path d="M119.347 182.345C118.986 182.067 118.58 181.858 118.146 181.727C117.726 181.589 117.285 181.529 116.844 181.55C116.406 181.542 115.976 181.675 115.616 181.93C115.255 182.186 114.983 182.551 114.837 182.973C114.856 182.732 114.921 182.497 115.029 182.281C115.138 182.066 115.286 181.875 115.467 181.718C115.857 181.407 116.334 181.231 116.829 181.216C117.312 181.204 117.793 181.297 118.239 181.488C118.679 181.666 119.062 181.964 119.348 182.35"
                  fill="#F18B8B"/>
            <path d="M143.045 190.18C147.404 190.364 149.524 188.628 149.26 187.453C148.995 186.278 145.475 183.749 143.046 179.039"
                  stroke="#3A1593" stroke-width="0.7" stroke-miterlimit="10" stroke-linecap="round"/>
            <path d="M135.057 180.447C135.108 180.805 135.258 181.141 135.489 181.415C135.719 181.689 136.022 181.89 136.36 181.995C136.699 182.099 137.06 182.103 137.4 182.006C137.741 181.909 138.048 181.715 138.284 181.446C138.521 181.177 138.678 180.845 138.737 180.489C138.795 180.132 138.753 179.766 138.616 179.433C138.478 179.1 138.251 178.814 137.96 178.608C137.669 178.402 137.327 178.285 136.974 178.271C136.438 178.303 135.937 178.549 135.578 178.957C135.219 179.364 135.032 179.9 135.057 180.447Z"
                  fill="#454975"/>
            <path d="M147.519 179.778C147.576 180.135 147.732 180.468 147.968 180.737C148.204 181.007 148.511 181.202 148.851 181.3C149.192 181.398 149.553 181.395 149.891 181.291C150.23 181.187 150.533 180.986 150.765 180.713C150.996 180.439 151.146 180.104 151.198 179.746C151.25 179.388 151.201 179.023 151.057 178.693C150.913 178.362 150.68 178.081 150.385 177.881C150.09 177.681 149.745 177.572 149.392 177.565C148.857 177.608 148.361 177.865 148.011 178.279C147.66 178.693 147.483 179.232 147.519 179.778Z"
                  fill="#454975"/>
            <path d="M136.938 169.395C133.544 168.07 130.274 171.36 128.853 173.298C128.153 174.252 128.734 174.838 129.722 174.087C131.64 172.701 133.91 171.911 136.257 171.814C138.021 171.856 138.255 169.909 136.937 169.395"
                  fill="#FFA8A8"/>
            <path d="M136.363 168.557C132.897 167.437 129.83 170.916 128.526 172.934C127.885 173.93 128.499 174.479 129.441 173.671C131.273 172.172 133.492 171.248 135.829 171.013C137.592 170.949 137.712 168.991 136.362 168.556"
                  fill="#3A1593"/>
            <path d="M146.352 168.024C149.478 166.905 151.951 169.201 153.166 171.083C153.809 172.077 153.255 173.008 152.247 172.286C150.818 171.027 148.979 170.363 147.094 170.425C145.331 170.509 145.02 168.5 146.352 168.024Z"
                  fill="#3A1593"/>
            <path d="M151.19 195.803C151.144 196.108 151.091 196.396 151.026 196.678C150.828 197.739 150.49 198.767 150.021 199.735C148.096 203.538 144.686 202.769 142.06 198.123C141.832 197.72 141.611 197.286 141.398 196.83C141.367 196.769 141.344 196.709 141.316 196.647C145.902 194.746 149.665 194.86 151.195 195.803"
                  fill="#A43B3B"/>
            <path d="M208.779 321.175L228.352 319.531C228.868 319.491 229.363 319.312 229.79 319.013C230.216 318.715 230.558 318.307 230.782 317.831C230.977 317.398 231.067 316.923 231.043 316.447C231.019 315.971 230.882 315.508 230.645 315.098C230.407 314.688 230.076 314.343 229.679 314.093C229.282 313.843 228.832 313.695 228.367 313.662L208.355 311.884L208.779 321.175Z"
                  fill="#ED6F70"/>
            <path d="M246.191 313.172C245.639 314.437 244.769 315.53 243.669 316.339C242.57 317.149 241.28 317.646 239.931 317.78C239.444 317.828 238.954 317.83 238.467 317.787L226.019 316.676L208.776 321.179L195.091 323.602L189.783 323.755L193.866 304.544L196.783 305.324L203.329 307.155C206.188 307.954 209.183 308.103 212.103 307.591L220.77 306.072C223.994 305.5 227.308 305.825 230.366 307.014L246.191 313.172Z"
                  fill="#FF9494"/>
            <path d="M229.789 311.686L230.036 310.882L243.927 315.146L243.68 315.951L229.789 311.686Z" fill="#ED6F70"/>
            <path d="M123.092 223.927C113.592 241.02 125.668 315.166 125.668 315.166L195.536 327.051L203.138 304.637L144.614 277.458C140.379 258.523 133.107 240.435 123.092 223.927Z"
                  fill="#FFCF1B"/>
            <path d="M151.12 319.372L133.419 315.953C128.294 314.431 123.657 311.543 119.984 307.585C116.311 303.627 113.734 298.742 112.518 293.431L106.447 266.239"
                  stroke="#454975" stroke-width="0.898" stroke-miterlimit="10"/>
            <path d="M120.575 171.64C120.491 167.449 121.376 163.297 123.159 159.522C124.942 155.747 127.573 152.456 130.837 149.917L126.415 151.714C122.714 155.213 116.557 161.79 116.924 171.527L120.575 171.64Z"
                  fill="#1F0A52"/>
            <path d="M70.6775 329.766H330.29C330.66 329.766 331.015 329.616 331.276 329.349C331.538 329.081 331.685 328.718 331.685 328.34C331.685 327.962 331.538 327.599 331.276 327.332C331.015 327.064 330.66 326.914 330.29 326.914H70.6775C70.3074 326.914 69.9524 327.064 69.6907 327.332C69.429 327.599 69.282 327.962 69.282 328.34C69.282 328.718 69.429 329.081 69.6907 329.349C69.9524 329.616 70.3074 329.766 70.6775 329.766Z"
                  fill="#3A1593"/>
            <path d="M43.365 329.766H59.3823C59.7524 329.766 60.1074 329.616 60.3691 329.349C60.6308 329.081 60.7778 328.718 60.7778 328.34C60.7778 327.962 60.6308 327.599 60.3691 327.332C60.1074 327.064 59.7524 326.914 59.3823 326.914H43.365C42.9949 326.914 42.6399 327.064 42.3782 327.332C42.1165 327.599 41.9695 327.962 41.9695 328.34C41.9695 328.718 42.1165 329.081 42.3782 329.349C42.6399 329.616 42.9949 329.766 43.365 329.766Z"
                  fill="#3A1593"/>
            <path d="M241.796 136.581H162.176C152.649 136.581 144.854 128.792 144.854 119.271C144.854 109.75 152.649 101.96 162.176 101.96H241.796C251.324 101.96 259.119 109.749 259.119 119.271C259.119 128.792 251.324 136.581 241.796 136.581Z"
                  fill="#3A1593"/>
            <path d="M333.241 208.399H265.551C263.631 208.446 261.722 208.1 259.935 207.381C258.148 206.663 256.519 205.586 255.145 204.215C253.771 202.844 252.679 201.206 251.934 199.397C251.189 197.588 250.805 195.645 250.805 193.683C250.805 191.72 251.189 189.777 251.934 187.969C252.679 186.16 253.771 184.522 255.145 183.151C256.519 181.779 258.148 180.703 259.935 179.984C261.722 179.266 263.631 178.92 265.551 178.967H333.241C335.161 178.92 337.07 179.266 338.858 179.984C340.645 180.703 342.273 181.779 343.647 183.151C345.021 184.522 346.113 186.16 346.858 187.969C347.604 189.777 347.988 191.72 347.988 193.683C347.988 195.645 347.604 197.588 346.858 199.397C346.113 201.206 345.021 202.844 343.647 204.215C342.273 205.586 340.645 206.663 338.858 207.381C337.07 208.1 335.161 208.446 333.241 208.399Z"
                  fill="#90C73A"/>
            <path d="M322.527 318.442H250.177C249.521 318.453 248.872 318.308 248.279 318.02C247.687 317.733 247.168 317.309 246.762 316.783C246.355 316.257 246.073 315.642 245.937 314.986C245.802 314.33 245.815 313.651 245.978 313.002L259.677 260.94C260.109 259.355 261.04 257.959 262.326 256.969C263.611 255.978 265.18 255.448 266.79 255.46H338.793C339.676 255.446 340.549 255.64 341.347 256.027C342.144 256.415 342.843 256.985 343.39 257.693C343.936 258.402 344.316 259.229 344.499 260.112C344.681 260.995 344.663 261.909 344.444 262.783L331.647 311.412C331.093 313.445 329.9 315.234 328.251 316.504C326.603 317.774 324.592 318.454 322.527 318.439"
                  fill="#693FCE"/>
            <path d="M348.251 262.783L335.449 311.413C334.897 313.447 333.705 315.238 332.056 316.509C330.408 317.78 328.396 318.46 326.331 318.444H253.98C253.324 318.455 252.675 318.311 252.082 318.024C251.49 317.736 250.97 317.312 250.564 316.786C250.158 316.259 249.877 315.644 249.742 314.988C249.607 314.332 249.622 313.653 249.786 313.004L263.486 260.942C263.915 259.356 264.845 257.959 266.13 256.968C267.415 255.977 268.984 255.446 270.594 255.459H342.595C343.478 255.444 344.353 255.638 345.151 256.025C345.949 256.412 346.648 256.982 347.195 257.691C347.743 258.4 348.122 259.228 348.305 260.111C348.488 260.994 348.469 261.908 348.25 262.783"
                  fill="#3A1593"/>
            <path d="M302.089 318.439H272.934L289.785 284.457L302.089 318.439Z" fill="#1F0A50"/>
            <path d="M313.719 214.581V249.206" stroke="#454975" stroke-miterlimit="10"/>
            <path d="M179.104 140.116L167.64 160.404" stroke="#454975" stroke-miterlimit="10"/>
            <path d="M332.214 185.184H281.021V188.288H332.214V185.184Z" fill="white"/>
            <path d="M278.158 185.184H268.752V188.288H278.158V185.184Z" fill="white"/>
            <path d="M321.187 192.363H296.972V195.466H321.187V192.363Z" fill="white"/>
            <path d="M332.213 192.363H323.477V195.466H332.213V192.363Z" fill="white"/>
            <path d="M294.764 192.363H268.752V195.466H294.764V192.363Z" fill="white"/>
            <path d="M308.081 199.544H286.992V202.647H308.081V199.544Z" fill="white"/>
            <path d="M284.62 199.544H268.752V202.647H284.62V199.544Z" fill="white"/>
            <path d="M235.026 110.583H183.832V113.687H235.026V110.583Z" fill="white"/>
            <path d="M180.97 110.583H171.564V113.687H180.97V110.583Z" fill="white"/>
            <path d="M223.999 117.763H199.785V120.867H223.999V117.763Z" fill="white"/>
            <path d="M235.026 117.763H226.29V120.867H235.026V117.763Z" fill="white"/>
            <path d="M197.576 117.763H171.564V120.867H197.576V117.763Z" fill="white"/>
            <path d="M210.893 124.942H189.805V128.046H210.893V124.942Z" fill="white"/>
            <path d="M187.432 124.942H171.564V128.046H187.432V124.942Z" fill="white"/>
            <path d="M317.944 326.916H208.021V321.176L247.772 318.792H270.086V323.788H316.791L317.944 326.916Z"
                  fill="#FF5148"/>
            <path d="M289.785 284.457H314.36L317.944 326.919H280.399L289.785 284.457Z" fill="#52479D"/>
            <path d="M270.087 318.797V323.793H247.915L247.772 318.797H270.087Z" fill="#E62D44"/>
            <path d="M330.481 304.619H325.268L325.702 302.967H330.914L330.481 304.619Z" fill="#303352"/>
            <path d="M330.367 303.818H325.806L326.014 303.024H330.575L330.367 303.818Z" fill="white"/>
            <path d="M329.543 308.207H324.329L324.762 306.555H329.98L329.543 308.207Z" fill="#303352"/>
            <path d="M329.427 307.406H324.861L325.069 306.611H329.631L329.427 307.406Z" fill="white"/>
            <path d="M328.603 311.795H323.39L323.822 310.143H329.036L328.603 311.795Z" fill="#303352"/>
            <path d="M328.486 310.994H323.925L324.133 310.2H328.694L328.486 310.994Z" fill="white"/>
            <path d="M125.791 183.851C125.791 191.844 121.387 198.324 115.953 198.324C110.519 198.324 106.115 191.844 106.115 183.851C106.115 175.859 110.519 169.38 115.953 169.38C121.387 169.38 125.791 175.859 125.791 183.851Z"
                  fill="#E62D44"/>
            <path d="M121.6 183.584C121.6 189.952 118.47 195.116 114.61 195.116C110.75 195.116 107.619 189.952 107.619 183.584C107.619 177.215 110.749 172.051 114.61 172.051C118.471 172.051 121.6 177.215 121.6 183.584Z"
                  fill="#FF5148"/>
            <path d="M118.671 171.434H113.63C113.495 171.434 113.365 171.379 113.269 171.281C113.173 171.183 113.12 171.05 113.12 170.912C113.12 170.774 113.173 170.641 113.269 170.543C113.365 170.446 113.495 170.391 113.63 170.391H118.671C118.807 170.391 118.936 170.446 119.032 170.543C119.128 170.641 119.182 170.774 119.182 170.912C119.182 171.05 119.128 171.183 119.032 171.281C118.936 171.379 118.807 171.434 118.671 171.434Z"
                  fill="#3A1593"/>
            <path d="M165.822 205.29C165.841 206.143 165.611 206.982 165.16 207.701C164.71 208.42 164.061 208.986 163.295 209.325C162.529 209.665 161.681 209.764 160.86 209.609C160.038 209.455 159.281 209.053 158.684 208.457C158.087 207.86 157.677 207.095 157.507 206.259C157.337 205.424 157.415 204.555 157.73 203.765C158.045 202.974 158.584 202.298 159.277 201.822C159.97 201.346 160.786 201.091 161.621 201.091C162.723 201.079 163.785 201.514 164.572 202.301C165.36 203.089 165.81 204.163 165.822 205.29Z"
                  fill="#E62D44"/>
            <path d="M163.13 203.503C163.139 203.907 163.03 204.304 162.817 204.644C162.604 204.985 162.297 205.253 161.934 205.413C161.571 205.574 161.17 205.621 160.781 205.548C160.392 205.475 160.034 205.285 159.751 205.002C159.468 204.72 159.274 204.358 159.194 203.962C159.114 203.566 159.15 203.155 159.3 202.781C159.449 202.407 159.704 202.087 160.032 201.861C160.36 201.636 160.747 201.515 161.142 201.516C161.4 201.512 161.657 201.561 161.896 201.66C162.136 201.758 162.355 201.903 162.539 202.088C162.724 202.272 162.871 202.492 162.973 202.735C163.074 202.978 163.128 203.239 163.13 203.503Z"
                  fill="#FF5148"/>
            <path d="M118.537 170.931C118.485 163.739 123.687 153.636 130.836 149.917L126.004 151.663C122.421 153.403 119.377 156.121 117.207 159.516C115.038 162.912 113.827 166.853 113.709 170.906L118.537 170.931Z"
                  fill="#FF5148"/>
            <path d="M151.19 195.803C151.144 196.108 151.091 196.396 151.026 196.678C149.761 196.91 148.482 197.058 147.197 197.119C145.26 197.223 143.316 197.127 141.398 196.83C141.367 196.769 141.344 196.709 141.316 196.647C145.902 194.746 149.665 194.86 151.195 195.803"
                  fill="white"/>
            <path d="M150.02 199.735C148.095 203.538 144.685 202.769 142.059 198.123C142.576 198.061 143.095 198.031 143.615 198.032C145.864 197.989 148.081 198.578 150.024 199.735"
                  fill="#BB4344"/>
            <path d="M145.384 260.162L154.66 258.188L157.928 273.52L148.652 275.495L145.384 260.162Z" fill="#FF5148"/>
            <path d="M148.799 255.882C148.935 255.835 149.08 255.819 149.224 255.836C149.367 255.853 149.505 255.902 149.627 255.98C149.75 256.058 149.854 256.162 149.932 256.286C150.011 256.41 150.061 256.55 150.08 256.696L150.392 259.404L149.513 259.571L148.254 257.282C148.186 257.156 148.146 257.016 148.137 256.873C148.128 256.729 148.15 256.586 148.202 256.452C148.254 256.318 148.335 256.198 148.438 256.101C148.541 256.003 148.664 255.93 148.799 255.886"
                  fill="#DAD4F8"/>
            <path d="M86.8521 111.794C88.4202 111.778 89.9308 112.398 91.0518 113.518C92.1728 114.639 92.8126 116.169 92.8305 117.772C92.8454 118.302 93.062 118.806 93.4344 119.175C93.8067 119.545 94.3055 119.752 94.8247 119.752C95.3439 119.752 95.8427 119.545 96.215 119.175C96.5874 118.806 96.804 118.302 96.8189 117.772C96.7884 115.1 95.7211 112.55 93.8515 110.682C91.9819 108.814 89.4631 107.781 86.8488 107.811C86.5894 107.806 86.3316 107.853 86.0904 107.951C85.8492 108.049 85.6295 108.195 85.4442 108.38C85.2589 108.566 85.1117 108.787 85.0112 109.032C84.9107 109.276 84.8589 109.539 84.8589 109.804C84.8589 110.069 84.9107 110.331 85.0112 110.576C85.1117 110.82 85.2589 111.042 85.4442 111.227C85.6295 111.413 85.8492 111.559 86.0904 111.656C86.3316 111.754 86.5894 111.802 86.8488 111.796"
                  fill="#FF5148"/>
            <path d="M86.8521 103.825C90.5124 103.783 94.0391 105.229 96.6564 107.844C99.2738 110.46 100.767 114.031 100.809 117.772C100.824 118.302 101.04 118.806 101.413 119.175C101.785 119.545 102.284 119.752 102.803 119.752C103.322 119.752 103.821 119.545 104.193 119.175C104.566 118.806 104.782 118.302 104.797 117.772C104.744 112.962 102.823 108.37 99.4581 105.007C96.0929 101.644 91.5584 99.7851 86.8521 99.8387C86.5927 99.8333 86.3349 99.8808 86.0937 99.9785C85.8525 100.076 85.6328 100.222 85.4475 100.408C85.2622 100.593 85.115 100.815 85.0145 101.059C84.9139 101.304 84.8622 101.566 84.8622 101.831C84.8622 102.096 84.9139 102.359 85.0145 102.603C85.115 102.848 85.2622 103.069 85.4475 103.255C85.6328 103.44 85.8525 103.586 86.0937 103.684C86.3349 103.782 86.5927 103.829 86.8521 103.824"
                  fill="#FF5148"/>
            <path d="M316.432 209.591V220.403" stroke="#454975" stroke-miterlimit="10"/>
            <path d="M145.8 69.2496C145.833 70.7107 145.438 72.1486 144.667 73.3796C143.896 74.6106 142.784 75.5789 141.472 76.161C140.16 76.743 138.709 76.9123 137.302 76.6474C135.896 76.3824 134.599 75.6951 133.576 74.6733C132.554 73.6515 131.852 72.3415 131.562 70.9105C131.271 69.4795 131.404 67.9923 131.944 66.6389C132.484 65.2855 133.406 64.1273 134.593 63.3119C135.78 62.4966 137.177 62.0612 138.607 62.0614C140.494 62.0399 142.311 62.7852 143.66 64.1332C145.009 65.4812 145.779 67.3216 145.8 69.2496Z"
                  fill="#DAD4F8"/>
            <path d="M200.467 72.9876C200.483 73.6889 200.293 74.379 199.923 74.9699C199.553 75.5607 199.019 76.0255 198.39 76.3048C197.76 76.5842 197.064 76.6655 196.389 76.5383C195.714 76.4112 195.091 76.0813 194.6 75.5909C194.109 75.1005 193.773 74.4718 193.633 73.785C193.494 73.0982 193.557 72.3844 193.816 71.7348C194.075 71.0852 194.518 70.5293 195.088 70.1379C195.657 69.7465 196.328 69.5375 197.014 69.5375C197.92 69.5272 198.792 69.8849 199.44 70.5319C200.087 71.1789 200.457 72.0622 200.467 72.9876Z"
                  fill="#DAD4F8"/>
            <path d="M120.48 114.676C120.494 115.319 120.32 115.952 119.981 116.494C119.642 117.036 119.153 117.462 118.576 117.718C117.999 117.974 117.36 118.049 116.741 117.932C116.122 117.816 115.551 117.513 115.101 117.064C114.651 116.614 114.342 116.038 114.214 115.408C114.086 114.779 114.145 114.124 114.382 113.529C114.62 112.933 115.026 112.423 115.548 112.065C116.07 111.706 116.685 111.514 117.314 111.514C118.144 111.505 118.944 111.832 119.538 112.425C120.131 113.018 120.47 113.828 120.48 114.676Z"
                  stroke="#DAD4F8" stroke-width="2" stroke-miterlimit="10"/>
        </g>
        <path d="M102.669 131.618L101.68 126.271C101.659 126.162 101.607 126.061 101.529 125.983C101.452 125.904 101.353 125.851 101.245 125.83L93.4816 124.278C93.3928 124.26 93.301 124.265 93.2141 124.291C93.1272 124.317 93.0479 124.365 92.9829 124.429L89.5637 127.845C83.7826 125.334 80.6804 122.227 77.9278 116.211L81.3413 112.8C81.4058 112.736 81.4535 112.656 81.4798 112.568C81.5062 112.481 81.5104 112.387 81.492 112.298L79.9359 104.539C79.9133 104.43 79.8591 104.33 79.7804 104.253C79.7017 104.175 79.6021 104.124 79.4945 104.105L74.1467 103.119C74.0729 103.105 73.9971 103.107 73.9239 103.123C72.6185 103.417 71.4197 104.079 70.4629 105.033C68.8226 106.685 68.1977 109.113 68.6612 112.056C69.4736 117.217 71.9985 124.394 76.6494 129.06L76.6814 129.093L76.7067 129.118L76.7149 129.126C81.383 133.772 88.5662 136.295 93.7314 137.107C94.3334 137.204 94.9417 137.253 95.5511 137.255C96.5017 137.297 97.4508 137.145 98.3437 136.809C99.2366 136.474 100.056 135.96 100.753 135.299C101.7 134.357 102.363 133.156 102.663 131.841C102.68 131.768 102.682 131.692 102.669 131.618Z"
              fill="#3A1593"/>
        <path d="M77.9303 116.211L73.9305 103.128C72.6251 103.422 71.4263 104.084 70.4696 105.038C68.8226 106.684 68.1977 109.11 68.6613 112.056C69.4408 116.823 71.1666 121.376 73.7323 125.436C74.5791 126.744 75.5564 127.958 76.6486 129.059L76.6806 129.092L76.706 129.117L76.7142 129.125C81.3823 133.771 88.5654 136.294 93.7306 137.106C94.3326 137.203 94.941 137.252 95.5504 137.254C96.5009 137.296 97.4501 137.144 98.343 136.809C99.2359 136.473 100.055 135.96 100.752 135.298C101.7 134.356 102.363 133.156 102.663 131.84L89.5662 127.849C83.7851 125.335 80.6829 122.231 77.9303 116.211Z"
              fill="#3A1593"/>
        <path d="M96.6682 136.082C96.0589 136.08 95.4505 136.03 94.8485 135.934C89.6833 135.122 82.501 132.598 77.832 127.952L77.8238 127.944L77.7985 127.919L77.7665 127.887C73.1164 123.22 70.5916 116.043 69.7783 110.881C69.5457 109.805 69.5313 108.691 69.7361 107.608C69.9409 106.526 70.3605 105.497 70.9691 104.587C70.7971 104.729 70.6309 104.879 70.4712 105.038C68.8226 106.685 68.1977 109.111 68.6613 112.056C69.4737 117.217 71.9985 124.394 76.6495 129.06L76.6814 129.093L76.7068 129.118L76.715 129.126C81.3831 133.772 88.5662 136.295 93.7314 137.107C94.3334 137.204 94.9418 137.253 95.5512 137.255C96.5017 137.297 97.4509 137.145 98.3438 136.809C99.2367 136.474 100.056 135.96 100.753 135.299C100.991 135.061 101.213 134.806 101.416 134.536C100.056 135.597 98.3781 136.143 96.6682 136.082Z"
              fill="#3A1593"/>
        <path d="M336.601 136.95H373.229V159.607C373.218 160.541 372.845 161.434 372.191 162.087C371.537 162.741 370.656 163.102 369.741 163.092H340.089C339.175 163.102 338.294 162.741 337.639 162.087C336.985 161.434 336.612 160.541 336.601 159.607V136.95Z"
              fill="#3A1593"/>
        <path d="M336.601 136.95H373.229L354.871 149.104L336.601 136.95Z" fill="#FFCE1A"/>
        <path d="M377.291 138.602C377.323 140.042 376.934 141.458 376.174 142.671C375.415 143.884 374.319 144.838 373.027 145.411C371.735 145.985 370.304 146.151 368.919 145.89C367.533 145.629 366.255 144.952 365.248 143.946C364.241 142.939 363.549 141.649 363.263 140.239C362.976 138.829 363.107 137.364 363.639 136.031C364.171 134.697 365.079 133.556 366.249 132.753C367.418 131.949 368.795 131.52 370.204 131.52C372.062 131.499 373.853 132.233 375.182 133.561C376.511 134.889 377.269 136.703 377.291 138.602Z"
              fill="#FF5148"/>
    </g>
    <defs>
        <clipPath id="clip0_1254_39885">
            <rect width="380" height="380" fill="white"/>
        </clipPath>
    </defs>
</svg>
